<svg width="166" height="50" viewBox="0 0 166 50" fill="none" xmlns="http://www.w3.org/2000/svg">
<g clip-path="url(#clip0_1_66)">
<path d="M0.137089 32.3516V24.9728C1.46566 26.0948 2.90866 26.9402 4.4667 27.509C6.02415 28.0622 7.59709 28.3388 9.18553 28.3388C10.1165 28.3388 10.926 28.2548 11.6132 28.0856C12.3159 27.9164 12.8965 27.686 13.3542 27.3938C13.8275 27.0866 14.1791 26.7332 14.408 26.3336C14.6369 25.9178 14.7519 25.4726 14.7519 24.9956C14.7519 24.35 14.5683 23.774 14.2018 23.2664C13.8352 22.7588 13.3316 22.2902 12.6902 21.8594C12.0638 21.4292 11.3158 21.0146 10.445 20.6144C9.57474 20.2148 8.63539 19.808 7.62749 19.3928C5.06214 18.3164 3.14588 17.0024 1.87811 15.4496C0.625839 13.8968 0 12.0212 0 9.82344C0 8.10144 0.343317 6.62604 1.03055 5.39604C1.71778 4.15104 2.64939 3.12864 3.82537 2.32884C5.01625 1.52964 6.39071 0.945843 7.94816 0.576844C9.5062 0.192244 11.1554 0.000244141 12.8965 0.000244141C14.6065 0.000244141 16.118 0.108244 17.4317 0.323044C18.7603 0.522844 19.9816 0.837843 21.0961 1.26804V8.16264C20.5466 7.77864 19.9434 7.44024 19.2866 7.14864C18.6458 6.85644 17.9813 6.61824 17.294 6.43344C16.6068 6.23364 15.9196 6.08784 15.2323 5.99544C14.5606 5.90304 13.9193 5.85684 13.3083 5.85684C12.4685 5.85684 11.705 5.94144 11.0177 6.11064C10.3305 6.26484 9.75057 6.48744 9.27672 6.77964C8.80347 7.07124 8.4375 7.42524 8.17763 7.84044C7.91776 8.24004 7.78842 8.69304 7.78842 9.20064C7.78842 9.75384 7.93266 10.2536 8.22293 10.6994C8.5132 11.1302 8.92566 11.5448 9.4603 11.9444C9.99435 12.329 10.6434 12.713 11.407 13.0976C12.1711 13.4666 13.0335 13.8506 13.9956 14.2502C15.3086 14.804 16.4846 15.3956 17.5235 16.0256C18.5767 16.6406 19.4779 17.3402 20.2265 18.1244C20.974 18.9086 21.5467 19.808 21.9443 20.822C22.3413 21.8216 22.5397 22.9898 22.5397 24.3272C22.5397 26.1716 22.1887 27.7244 21.4859 28.985C20.7987 30.23 19.8594 31.2446 18.6685 32.0288C17.4776 32.7974 16.0876 33.3506 14.4998 33.689C12.9263 34.0274 11.2621 34.196 9.5062 34.196C7.70378 34.196 5.986 34.0424 4.35226 33.7352C2.73343 33.4274 1.32857 32.9666 0.137089 32.3516Z" fill="white"/>
<path d="M55.2497 33.6193H45.9038L36.3296 19.2541C36.1461 18.9775 35.8558 18.3703 35.4588 17.4325H35.3438V33.6193H27.9452V0.553314H35.3438V16.1875H35.4588C35.6418 15.7567 35.9476 15.1417 36.3749 14.3425L45.446 0.553314H54.265L42.8116 16.3255L55.2497 33.6193Z" fill="white"/>
<path d="M81.7066 6.61811H72.3381V33.6193H64.9162V6.61811H55.5936V0.553314H81.7066V6.61811Z" fill="white"/>
<path d="M84.6152 32.3515V24.9727C85.9444 26.0947 87.3868 26.9401 88.9449 27.5089C90.5029 28.0621 92.0752 28.3387 93.6637 28.3387C94.5947 28.3387 95.4041 28.2547 96.0913 28.0855C96.7941 27.9163 97.374 27.6859 97.8324 27.3937C98.3062 27.0865 98.6573 26.7331 98.8862 26.3335C99.115 25.9177 99.2295 25.4725 99.2295 24.9955C99.2295 24.3499 99.0465 23.7739 98.6799 23.2663C98.3134 22.7587 97.8097 22.2901 97.1684 21.8593C96.5425 21.4291 95.7939 21.0145 94.9231 20.6143C94.0529 20.2147 93.1135 19.8079 92.1062 19.3927C89.5397 18.3163 87.624 17.0023 86.3563 15.4495C85.104 13.8967 84.4781 12.0211 84.4781 9.82328C84.4781 8.10128 84.8215 6.62589 85.5087 5.39589C86.1965 4.15089 87.1275 3.12849 88.3035 2.32869C89.4944 1.52949 90.8695 0.945691 92.4269 0.576691C93.9838 0.192091 95.6336 9.15527e-05 97.374 9.15527e-05C99.0846 9.15527e-05 100.597 0.108091 101.91 0.322891C103.238 0.522691 104.46 0.837691 105.575 1.26789V8.16248C105.025 7.77848 104.422 7.44008 103.766 7.14849C103.124 6.85629 102.459 6.61809 101.772 6.43329C101.085 6.23349 100.398 6.08769 99.7105 5.99529C99.0393 5.90289 98.3974 5.85669 97.7865 5.85669C96.9473 5.85669 96.1831 5.94129 95.4965 6.11049C94.8087 6.26469 94.2287 6.48729 93.7555 6.77949C93.2816 7.07109 92.9157 7.42509 92.6558 7.84029C92.3959 8.23988 92.266 8.69288 92.266 9.20048C92.266 9.75368 92.4114 10.2535 92.7017 10.6993C92.9913 11.1301 93.4032 11.5447 93.9384 11.9443C94.4731 12.3289 95.1222 12.7129 95.8851 13.0975C96.6486 13.4665 97.5117 13.8505 98.4731 14.2501C99.7868 14.8039 100.963 15.3955 102.001 16.0255C103.055 16.6405 103.956 17.3401 104.704 18.1243C105.453 18.9085 106.025 19.8079 106.422 20.8219C106.819 21.8215 107.018 22.9897 107.018 24.3271C107.018 26.1715 106.666 27.7243 105.964 28.9849C105.277 30.2299 104.338 31.2445 103.147 32.0287C101.956 32.7973 100.566 33.3505 98.9774 33.6889C97.405 34.0273 95.7409 34.1959 93.9838 34.1959C92.1825 34.1959 90.4642 34.0423 88.8304 33.7351C87.2122 33.4273 85.8067 32.9665 84.6152 32.3515Z" fill="white"/>
<path d="M114.943 34.1959C113.752 34.1959 112.76 33.8269 111.966 33.0895C111.172 32.3515 110.775 31.4443 110.775 30.3685C110.775 29.2615 111.179 28.3543 111.988 27.6475C112.813 26.9401 113.837 26.5867 115.058 26.5867C116.295 26.5867 117.303 26.9479 118.082 27.6703C118.875 28.3777 119.272 29.2765 119.272 30.3685C119.272 31.4905 118.868 32.4133 118.059 33.1357C117.265 33.8425 116.226 34.1959 114.943 34.1959Z" fill="white"/>
<path d="M139.75 16.5793C138.881 16.1029 137.865 15.8647 136.705 15.8647C135.132 15.8647 133.902 16.4485 133.016 17.6167C132.13 18.7699 131.688 20.3455 131.688 22.3435V33.6193H124.45V10.0075H131.688V14.3887H131.78C132.925 11.1913 134.987 9.59229 137.964 9.59229C138.728 9.59229 139.324 9.68468 139.75 9.86948V16.5793Z" fill="white"/>
<path d="M165.566 33.6193H158.35V30.0223H158.236C156.449 32.8045 154.06 34.1959 151.067 34.1959C145.63 34.1959 142.912 30.8833 142.912 24.2581V10.0075H150.127V23.6125C150.127 26.9479 151.441 28.6159 154.067 28.6159C155.365 28.6159 156.404 28.1623 157.182 27.2557C157.961 26.3335 158.35 25.0879 158.35 23.5201V10.0075H165.566V33.6193Z" fill="white"/>
<path d="M0 49.9999H165.566V39.1669H0V49.9999ZM3.49218 47.3599V42.3979H1.73328V41.7385H5.95918V42.3979H4.20027V47.3599H3.49218ZM7.2204 47.3599V41.7385H9.58547C10.0611 41.7385 10.4229 41.7889 10.6697 41.8903C10.917 41.9911 11.1143 42.1687 11.2621 42.4243C11.4099 42.6793 11.4833 42.9619 11.4833 43.2709C11.4833 43.6699 11.3605 44.0059 11.1155 44.2789C10.8711 44.5531 10.4938 44.7259 9.98184 44.8003C10.169 44.8945 10.3108 44.9887 10.4074 45.0799C10.6136 45.2791 10.8091 45.5293 10.9915 45.8287L11.9142 47.3599H11.0321L10.3269 46.1899C10.1219 45.8509 9.95203 45.5929 9.81912 45.4141C9.68501 45.2347 9.56521 45.1105 9.45971 45.0385C9.3554 44.9677 9.24752 44.9179 9.13844 44.8891C9.05857 44.8723 8.92864 44.8627 8.74566 44.8627H7.92849V47.3599H7.2204ZM7.92849 44.2189H9.44361C9.76667 44.2189 10.0176 44.1835 10.1988 44.1133C10.38 44.0437 10.5183 43.9315 10.6118 43.7755C10.706 43.6213 10.7531 43.4533 10.7531 43.2721C10.7531 43.0063 10.6625 42.7867 10.4801 42.6145C10.2971 42.4435 10.0093 42.3583 9.61527 42.3583H7.92849V44.2189ZM12.5204 47.3599L14.5672 41.7385H15.3432L17.5157 47.3599H16.7123L16.0948 45.6559H13.8477L13.269 47.3599H12.5204ZM14.0552 45.0511H15.8737L15.317 43.4929C15.1495 43.0195 15.0231 42.6283 14.9349 42.3193C14.8616 42.6859 14.7632 43.0453 14.6405 43.4017L14.0552 45.0511ZM19.5613 47.3599L17.4991 41.7385H18.2644L19.6508 45.8233C19.761 46.1503 19.8558 46.4569 19.9297 46.7437C20.012 46.4359 20.1073 46.1293 20.217 45.8233L21.6552 41.7385H22.3758L20.2951 47.3599H19.5613ZM23.5441 47.3599V41.7385H27.3969V42.3979H24.2522V44.1247H27.196V44.7847H24.2522V46.6999H27.5238V47.3599H23.5441ZM28.9877 47.3599V41.7385H29.6958V46.6999H32.3189V47.3599H28.9877ZM34.9409 47.3599V41.7385H35.9995L37.2613 45.7177C37.3781 46.0879 37.4621 46.3651 37.5158 46.5493C37.5766 46.3459 37.6725 46.0447 37.8019 45.6481L39.0857 41.7385H40.0311V47.3599H39.3528V42.6565L37.7953 47.3599H37.1593L35.6192 42.5707V47.3599H34.9409ZM41.6964 47.3599V41.7385H45.5492V42.3979H42.4045V44.1247H45.3483V44.7847H42.4045V46.6999H45.6761V47.3599H41.6964ZM47.1698 47.3599V41.7385H49.008C49.4234 41.7385 49.7399 41.7643 49.9587 41.8183C50.2638 41.8927 50.5249 42.0277 50.7407 42.2215C51.0232 42.4723 51.233 42.7921 51.3719 43.1815C51.5119 43.5721 51.5817 44.0179 51.5817 44.5189C51.5817 44.9455 51.5346 45.3235 51.4404 45.6535C51.3456 45.9829 51.224 46.2565 51.0762 46.4725C50.9272 46.6879 50.7657 46.8583 50.5893 46.9813C50.4146 47.1055 50.2018 47.2003 49.9533 47.2645C49.7041 47.3281 49.418 47.3599 49.095 47.3599H47.1698ZM47.8779 46.6999H49.0157C49.3674 46.6999 49.6428 46.6657 49.843 46.5967C50.0427 46.5271 50.2018 46.4305 50.321 46.3051C50.4879 46.1281 50.6179 45.8899 50.7109 45.5917C50.8044 45.2935 50.8515 44.9323 50.8515 44.5075C50.8515 43.9183 50.7597 43.4653 50.5773 43.1491C50.3944 42.8323 50.172 42.6205 49.9098 42.5131C49.7214 42.4357 49.4169 42.3979 48.9972 42.3979H47.8779V46.6999ZM53.1886 47.3599V41.7385H53.8967V47.3599H53.1886ZM55.0727 47.3599L57.1194 41.7385H57.8961L60.0686 47.3599H59.2646L58.6477 45.6559H56.4006L55.8213 47.3599H55.0727ZM56.608 45.0511H58.4266L57.8699 43.4929C57.7024 43.0195 57.5754 42.6283 57.4872 42.3193C57.4139 42.6859 57.3155 43.0453 57.1928 43.4017L56.608 45.0511ZM65.2589 46.6921C65.0432 46.9435 64.8071 47.1319 64.552 47.2579C64.2981 47.3833 64.0221 47.4457 63.7253 47.4457C63.1788 47.4457 62.7448 47.2525 62.4248 46.8649C62.1649 46.5481 62.0344 46.1965 62.0344 45.8065C62.0344 45.4597 62.1405 45.1471 62.3526 44.8681C62.5654 44.5885 62.8831 44.3437 63.3039 44.1313C63.0619 43.8415 62.9004 43.6045 62.8199 43.4221C62.7389 43.2415 62.6978 43.0663 62.6978 42.8977C62.6978 42.5599 62.8235 42.2671 63.0756 42.0181C63.3266 41.7685 63.6431 41.6443 64.0257 41.6443C64.3899 41.6443 64.6891 41.7619 64.921 41.9977C65.1534 42.2329 65.2691 42.5167 65.2691 42.8467C65.2691 43.3819 64.9311 43.8397 64.254 44.2177L65.2208 45.4951C65.3311 45.2695 65.4169 45.0097 65.4777 44.7127L66.156 44.8669C66.0391 45.3565 65.8818 45.7567 65.6815 46.0693C65.9259 46.4113 66.2042 46.6975 66.5136 46.9303L66.0743 47.4775C65.8103 47.3011 65.5397 47.0377 65.2589 46.6921ZM63.9172 43.7737C64.2033 43.5955 64.3875 43.4407 64.4716 43.3075C64.5562 43.1737 64.5985 43.0261 64.5985 42.8641C64.5985 42.6715 64.5401 42.5143 64.4245 42.3925C64.3088 42.2713 64.1634 42.2095 63.9912 42.2095C63.8135 42.2095 63.6645 42.2695 63.5465 42.3901C63.4285 42.5101 63.3689 42.6583 63.3689 42.8335C63.3689 42.9199 63.3898 43.0129 63.4333 43.1083C63.4756 43.2055 63.5388 43.3075 63.6246 43.4143L63.9172 43.7737ZM64.8417 46.1533L63.6466 44.5819C63.2914 44.8027 63.0518 45.0085 62.929 45.1981C62.8044 45.3877 62.7431 45.5749 62.7431 45.7609C62.7431 45.9871 62.8283 46.2229 63.0011 46.4671C63.1722 46.7119 63.416 46.8337 63.7301 46.8337C63.9262 46.8337 64.13 46.7707 64.3386 46.6435C64.5485 46.5169 64.7165 46.3537 64.8417 46.1533ZM69.3293 47.3599V41.7385H71.3439C71.6979 41.7385 71.9691 41.7565 72.1563 41.7919C72.4185 41.8381 72.6385 41.9257 72.8161 42.0535C72.9937 42.1831 73.1362 42.3637 73.244 42.5953C73.3525 42.8275 73.4062 43.0825 73.4062 43.3609C73.4062 43.8373 73.2619 44.2411 72.9722 44.5711C72.6844 44.9023 72.1616 45.0673 71.4059 45.0673H70.0374V47.3599H69.3293ZM70.0374 44.4073H71.416C71.8732 44.4073 72.1962 44.3185 72.3887 44.1391C72.5801 43.9603 72.6754 43.7089 72.6754 43.3831C72.6754 43.1491 72.6194 42.9475 72.5067 42.7801C72.3935 42.6121 72.2445 42.5011 72.0609 42.4477C71.9417 42.4147 71.7218 42.3979 71.4023 42.3979H70.0374V44.4073ZM74.8325 47.3599V41.7385H77.1976C77.6732 41.7385 78.0344 41.7889 78.2818 41.8903C78.5291 41.9911 78.7264 42.1687 78.8742 42.4243C79.022 42.6793 79.0953 42.9619 79.0953 43.2709C79.0953 43.6699 78.9726 44.0059 78.7276 44.2789C78.4832 44.5531 78.1053 44.7259 77.5939 44.8003C77.7817 44.8945 77.9229 44.9887 78.0201 45.0799C78.2257 45.2791 78.4212 45.5293 78.6036 45.8287L79.5263 47.3599H78.6447L77.939 46.1899C77.7346 45.8509 77.5641 45.5929 77.4306 45.4141C77.2971 45.2347 77.1779 45.1105 77.0718 45.0385C76.9681 44.9677 76.8596 44.9179 76.7505 44.8891C76.6713 44.8723 76.5401 44.8627 76.3577 44.8627H75.5406V47.3599H74.8325ZM75.5406 44.2189H77.0557C77.3787 44.2189 77.6297 44.1835 77.8115 44.1133C77.9927 44.0437 78.1304 43.9315 78.2233 43.7755C78.3181 43.6213 78.3652 43.4533 78.3652 43.2721C78.3652 43.0063 78.2746 42.7867 78.0922 42.6145C77.9092 42.4435 77.6213 42.3583 77.2274 42.3583H75.5406V44.2189ZM80.5014 44.6233C80.5014 43.6921 80.7398 42.9619 81.2154 42.4345C81.6911 41.9077 82.305 41.6443 83.0572 41.6443C83.5507 41.6443 83.9936 41.7685 84.3899 42.0157C84.7851 42.2629 85.0873 42.6085 85.2947 43.0525C85.5015 43.4941 85.6065 43.9969 85.6065 44.5585C85.6065 45.1273 85.4968 45.6379 85.2786 46.0867C85.0599 46.5367 84.7505 46.8769 84.3506 47.1073C83.9495 47.3389 83.5167 47.4541 83.0536 47.4541C82.5506 47.4541 82.1023 47.3257 81.706 47.0707C81.3108 46.8151 81.0104 46.4671 80.8072 46.0249C80.6027 45.5839 80.5014 45.1165 80.5014 44.6233ZM81.2315 44.6365C81.2315 45.3133 81.4044 45.8455 81.7495 46.2343C82.0946 46.6231 82.5285 46.8181 83.05 46.8181C83.5817 46.8181 84.0174 46.6219 84.3619 46.2289C84.7046 45.8365 84.8757 45.2791 84.8757 44.5567C84.8757 44.1001 84.8024 43.7011 84.6558 43.3609C84.5091 43.0207 84.2946 42.7567 84.0126 42.5689C83.7295 42.3817 83.413 42.2881 83.0614 42.2881C82.5619 42.2881 82.1321 42.4687 81.7721 42.8299C81.4115 43.1911 81.2315 43.7929 81.2315 44.6365ZM87.0167 47.3599V41.7385H88.0752L89.337 45.7177C89.4539 46.0879 89.5379 46.3651 89.5916 46.5493C89.6524 46.3459 89.7483 46.0447 89.8777 45.6481L91.1615 41.7385H92.1068V47.3599H91.4285V42.6565L89.8711 47.3599H89.2351L87.695 42.5707V47.3599H87.0167ZM93.5415 44.6233C93.5415 43.6921 93.7799 42.9619 94.2555 42.4345C94.7312 41.9077 95.3451 41.6443 96.0973 41.6443C96.5908 41.6443 97.0337 41.7685 97.43 42.0157C97.8252 42.2629 98.1274 42.6085 98.3348 43.0525C98.5416 43.4941 98.6466 43.9969 98.6466 44.5585C98.6466 45.1273 98.5369 45.6379 98.3187 46.0867C98.0994 46.5367 97.7906 46.8769 97.3907 47.1073C96.9896 47.3389 96.5568 47.4541 96.0937 47.4541C95.5907 47.4541 95.1425 47.3257 94.7461 47.0707C94.3509 46.8151 94.0505 46.4671 93.8467 46.0249C93.6428 45.5839 93.5415 45.1165 93.5415 44.6233ZM94.2716 44.6365C94.2716 45.3133 94.4445 45.8455 94.7896 46.2343C95.1347 46.6231 95.568 46.8181 96.0901 46.8181C96.6218 46.8181 97.0575 46.6219 97.402 46.2289C97.7448 45.8365 97.9158 45.2791 97.9158 44.5567C97.9158 44.1001 97.8425 43.7011 97.6959 43.3609C97.5492 43.0207 97.3347 42.7567 97.0527 42.5689C96.7696 42.3817 96.4525 42.2881 96.1009 42.2881C95.602 42.2881 95.1723 42.4687 94.8117 42.8299C94.4516 43.1911 94.2716 43.7929 94.2716 44.6365ZM101.428 47.3599V42.3979H99.6693V41.7385H103.895V42.3979H102.136V47.3599H101.428ZM105.261 47.3599V41.7385H105.969V47.3599H105.261ZM107.514 44.6233C107.514 43.6921 107.752 42.9619 108.228 42.4345C108.703 41.9077 109.317 41.6443 110.07 41.6443C110.563 41.6443 111.007 41.7685 111.403 42.0157C111.798 42.2629 112.099 42.6085 112.307 43.0525C112.514 43.4941 112.619 43.9969 112.619 44.5585C112.619 45.1273 112.509 45.6379 112.291 46.0867C112.072 46.5367 111.763 46.8769 111.363 47.1073C110.962 47.3389 110.53 47.4541 110.066 47.4541C109.563 47.4541 109.115 47.3257 108.718 47.0707C108.323 46.8151 108.023 46.4671 107.819 46.0249C107.616 45.5839 107.514 45.1165 107.514 44.6233ZM108.244 44.6365C108.244 45.3133 108.417 45.8455 108.762 46.2343C109.107 46.6231 109.54 46.8181 110.062 46.8181C110.594 46.8181 111.03 46.6219 111.374 46.2289C111.717 45.8365 111.888 45.2791 111.888 44.5567C111.888 44.1001 111.815 43.7011 111.669 43.3609C111.522 43.0207 111.307 42.7567 111.025 42.5689C110.742 42.3817 110.425 42.2881 110.074 42.2881C109.574 42.2881 109.145 42.4687 108.784 42.8299C108.424 43.1911 108.244 43.7929 108.244 44.6365ZM114.037 47.3599V41.7385H114.762L117.562 46.1503V41.7385H118.24V47.3599H117.515L114.715 42.9475V47.3599H114.037ZM121.497 47.3599V41.7385H123.511C123.865 41.7385 124.136 41.7565 124.324 41.7919C124.585 41.8381 124.806 41.9257 124.983 42.0535C125.161 42.1831 125.304 42.3637 125.412 42.5953C125.52 42.8275 125.573 43.0825 125.573 43.3609C125.573 43.8373 125.429 44.2411 125.14 44.5711C124.852 44.9023 124.329 45.0673 123.573 45.0673H122.205V47.3599H121.497ZM122.205 44.4073H123.584C124.041 44.4073 124.363 44.3185 124.556 44.1391C124.747 43.9603 124.843 43.7089 124.843 43.3831C124.843 43.1491 124.787 42.9475 124.674 42.7801C124.56 42.6121 124.411 42.5011 124.228 42.4477C124.109 42.4147 123.889 42.3979 123.57 42.3979H122.205V44.4073ZM127 47.3599V41.7385H129.365C129.841 41.7385 130.202 41.7889 130.449 41.8903C130.697 41.9911 130.894 42.1687 131.042 42.4243C131.19 42.6793 131.263 42.9619 131.263 43.2709C131.263 43.6699 131.14 44.0059 130.895 44.2789C130.65 44.5531 130.273 44.7259 129.761 44.8003C129.949 44.8945 130.09 44.9887 130.187 45.0799C130.393 45.2791 130.588 45.5293 130.771 45.8287L131.694 47.3599H130.812L130.107 46.1899C129.902 45.8509 129.732 45.5929 129.598 45.4141C129.464 45.2347 129.345 45.1105 129.239 45.0385C129.135 44.9677 129.027 44.9179 128.918 44.8891C128.838 44.8723 128.708 44.8627 128.525 44.8627H127.708V47.3599H127ZM127.708 44.2189H129.223C129.546 44.2189 129.797 44.1835 129.978 44.1133C130.16 44.0437 130.298 43.9315 130.391 43.7755C130.486 43.6213 130.533 43.4533 130.533 43.2721C130.533 43.0063 130.442 42.7867 130.259 42.6145C130.077 42.4435 129.788 42.3583 129.395 42.3583H127.708V44.2189ZM132.668 44.6233C132.668 43.6921 132.907 42.9619 133.383 42.4345C133.859 41.9077 134.472 41.6443 135.225 41.6443C135.718 41.6443 136.161 41.7685 136.557 42.0157C136.953 42.2629 137.254 42.6085 137.462 43.0525C137.669 43.4941 137.773 43.9969 137.773 44.5585C137.773 45.1273 137.664 45.6379 137.446 46.0867C137.227 46.5367 136.918 46.8769 136.518 47.1073C136.116 47.3389 135.684 47.4541 135.221 47.4541C134.718 47.4541 134.269 47.3257 133.874 47.0707C133.478 46.8151 133.178 46.4671 132.974 46.0249C132.77 45.5839 132.668 45.1165 132.668 44.6233ZM133.399 44.6365C133.399 45.3133 133.571 45.8455 133.917 46.2343C134.262 46.6231 134.695 46.8181 135.218 46.8181C135.749 46.8181 136.185 46.6219 136.529 46.2289C136.872 45.8365 137.043 45.2791 137.043 44.5567C137.043 44.1001 136.97 43.7011 136.823 43.3609C136.677 43.0207 136.462 42.7567 136.18 42.5689C135.896 42.3817 135.58 42.2881 135.228 42.2881C134.729 42.2881 134.299 42.4687 133.939 42.8299C133.579 43.1911 133.399 43.7929 133.399 44.6365ZM138.842 45.7633L139.475 45.6721C139.492 46.1023 139.568 46.3969 139.703 46.5565C139.839 46.7143 140.028 46.7941 140.267 46.7941C140.444 46.7941 140.596 46.7515 140.724 46.6657C140.853 46.5799 140.942 46.4635 140.99 46.3165C141.039 46.1701 141.062 45.9343 141.062 45.6133V41.7385H141.77V45.5683C141.77 46.0381 141.717 46.4017 141.609 46.6609C141.5 46.9189 141.331 47.1151 141.096 47.2513C140.862 47.3857 140.588 47.4541 140.273 47.4541C139.805 47.4541 139.447 47.3125 139.199 47.0281C138.951 46.7443 138.831 46.3237 138.842 45.7633ZM143.458 47.3599V41.7385H147.311V42.3979H144.166V44.1247H147.11V44.7847H144.166V46.6999H147.438V47.3599H143.458ZM152.732 45.3877L153.44 45.5761C153.292 46.1875 153.027 46.6519 152.643 46.9723C152.259 47.2927 151.789 47.4541 151.234 47.4541C150.66 47.4541 150.193 47.3311 149.833 47.0833C149.473 46.8379 149.199 46.4803 149.012 46.0129C148.825 45.5449 148.73 45.0433 148.73 44.5075C148.73 43.9225 148.836 43.4119 149.048 42.9763C149.26 42.5407 149.562 42.2095 149.953 41.9833C150.345 41.7565 150.776 41.6443 151.246 41.6443C151.78 41.6443 152.228 41.7865 152.59 42.0733C152.954 42.3601 153.208 42.7615 153.351 43.2799L152.658 43.4521C152.535 43.0441 152.355 42.7465 152.12 42.5599C151.885 42.3727 151.59 42.2803 151.233 42.2803C150.824 42.2803 150.482 42.3835 150.207 42.5899C149.933 42.7969 149.739 43.0759 149.628 43.4239C149.517 43.7737 149.461 44.1331 149.461 44.5033C149.461 44.9809 149.526 45.3985 149.658 45.7543C149.79 46.1113 149.995 46.3771 150.273 46.5535C150.551 46.7305 150.852 46.8181 151.176 46.8181C151.571 46.8181 151.904 46.6975 152.177 46.4581C152.45 46.2175 152.635 45.8611 152.732 45.3877ZM156.187 47.3599V42.3979H154.428V41.7385H158.654V42.3979H156.895V47.3599H156.187ZM159.67 45.5539L160.333 45.4909C160.364 45.7735 160.438 46.0057 160.553 46.1875C160.668 46.3681 160.847 46.5145 161.09 46.6267C161.332 46.7377 161.605 46.7941 161.908 46.7941C162.178 46.7941 162.415 46.7527 162.621 46.6675C162.827 46.5823 162.98 46.4659 163.081 46.3183C163.181 46.1701 163.232 46.0093 163.232 45.8365C163.232 45.6613 163.184 45.5083 163.087 45.3763C162.99 45.2449 162.83 45.1351 162.606 45.0445C162.463 44.9875 162.147 44.8957 161.656 44.7715C161.165 44.6473 160.822 44.5309 160.626 44.4205C160.372 44.2789 160.183 44.1037 160.059 43.8961C159.933 43.6885 159.871 43.4533 159.871 43.1959C159.871 42.9109 159.948 42.6451 160.101 42.3991C160.254 42.1519 160.476 41.9647 160.77 41.8369C161.064 41.7085 161.39 41.6443 161.749 41.6443C162.144 41.6443 162.493 41.7109 162.795 41.8459C163.097 41.9791 163.329 42.1765 163.492 42.4381C163.655 42.6991 163.742 42.9943 163.754 43.3243L163.076 43.3789C163.039 43.0249 162.917 42.7567 162.707 42.5755C162.496 42.3937 162.186 42.3037 161.776 42.3037C161.349 42.3037 161.037 42.3859 160.842 42.5509C160.648 42.7159 160.549 42.9145 160.549 43.1479C160.549 43.3489 160.619 43.5151 160.757 43.6465C160.893 43.7755 161.247 43.9105 161.821 44.0461C162.395 44.1835 162.789 44.3029 163.002 44.4049C163.312 44.5555 163.541 44.7451 163.689 44.9767C163.837 45.2071 163.91 45.4729 163.91 45.7735C163.91 46.0735 163.83 46.3537 163.667 46.6177C163.504 46.8823 163.272 47.0875 162.968 47.2339C162.663 47.3809 162.322 47.4541 161.94 47.4541C161.459 47.4541 161.055 47.3791 160.729 47.2315C160.403 47.0833 160.148 46.8613 159.963 46.5625C159.777 46.2655 159.68 45.9295 159.67 45.5539Z" fill="white"/>
</g>
<defs>
<clipPath id="clip0_1_66">
<rect width="165.566" height="50" fill="white"/>
</clipPath>
</defs>
</svg>
